<?xml version="1.0" encoding="utf-8"?>
<!-- Generator: Adobe Illustrator 22.1.0, SVG Export Plug-In . SVG Version: 6.00 Build 0)  -->
<svg version="1.1" id="Layer_1" xmlns="http://www.w3.org/2000/svg" xmlns:xlink="http://www.w3.org/1999/xlink" x="0px" y="0px"
	 viewBox="0 0 200 200" style="enable-background:new 0 0 200 200;" xml:space="preserve">
<style type="text/css">
	.st0{fill:#E8D9CF;}
</style>
<g>
	<g>
		<g>
			<g>
				<path class="st0" d="M39.3,3c19.8,0,35.6,15.9,35.6,35.6c0,15.1-9.1,27.6-22.2,32.9l11.7,19.2c0.3,0.5,0.1,1.5-0.7,1.5h-3.3
					c-0.3,0-0.8-0.2-1.3-1L48.3,73c-2.8,0.7-6,1.1-9,1.1c-19.7,0-35.5-15.6-35.5-35.4C3.7,18.9,19.5,3,39.3,3z M39.3,69.7
					c17.3,0,31.3-13.8,31.3-31.1c0-17.3-14-31.3-31.3-31.3S8.1,21.3,8.1,38.6C8.1,55.9,22,69.7,39.3,69.7z"/>
			</g>
		</g>
		<g>
			<g>
				<path class="st0" d="M46.3,69.9h5.4L41.1,52.3c-0.5-0.8-1-1-1.3-1h-3.3c-0.8,0-1,1-0.7,1.5L46.3,69.9z"/>
			</g>
		</g>
	</g>
	<g>
		<g>
			<path class="st0" d="M152.4,125.8c0-0.7,0.6-1.3,1.3-1.3h40.6c0.7,0,1.3,0.6,1.3,1.3v1.7c0,0.7-0.6,1.3-1.3,1.3h-37v27.9h32.1
				c0.7,0,1.3,0.6,1.3,1.3v1.7c0,0.7-0.6,1.3-1.3,1.3h-32.1v29.9h37c0.7,0,1.3,0.6,1.3,1.3v1.6c0,0.7-0.6,1.3-1.3,1.3h-40.6
				c-0.7,0-1.3-0.6-1.3-1.3V125.8z"/>
		</g>
	</g>
	<g>
		<path class="st0" d="M5.8,194.5c-0.5,0-1-0.2-1.4-0.6c-0.8-0.8-0.8-2.1,0-2.8l187-187c0.8-0.8,2.1-0.8,2.8,0s0.8,2.1,0,2.8
			l-187,187C6.9,194.3,6.3,194.5,5.8,194.5z"/>
	</g>
</g>
</svg>
